# xmcd CD database file
#
# Track frame offsets:
#	150
#	17671
#	32723
#	42865
#	55947
#	68237
#	88391
#	104382
#	128224
#	141007
#	156873
#	174062
#
# Disc length: 2587 seconds
#
# Revision: 0
# Processed by: cddbd v1.5.1PL0 Copyright (c) Steve Scherf et al.
# Submitted via: CDex 1.51
#
DISCID=9c0a190c
DTITLE=埼玉最終兵器 - Sixty Nine2 Original Sound Track
DYEAR=2004
DGENRE=Game
TTITLE0=Ignition
TTITLE1=Believe In Yourself
TTITLE2=Daylight
TTITLE3=Thunder Light
TTITLE4=Hard Wire
TTITLE5=Sacrifice
TTITLE6=Lunatic
TTITLE7=Into the Noize Ocean
TTITLE8=Destruction
TTITLE9=Eighteenth
TTITLE10=Another Space
TTITLE11=Fly High
EXTD=YEAR: 2004
EXTT0=
EXTT1=
EXTT2=
EXTT3=
EXTT4=
EXTT5=
EXTT6=
EXTT7=
EXTT8=
EXTT9=
EXTT10=
EXTT11=
PLAYORDER=
